<svg xmlns="http://www.w3.org/2000/svg" viewBox="0 0 512 512" fill="none">
  <defs>
    <linearGradient id="bg" x1="0" y1="0" x2="1" y2="1">
      <stop offset="0%" stop-color="#0a0a0f"/>
      <stop offset="100%" stop-color="#1a1a2e"/>
    </linearGradient>
    <linearGradient id="accent" x1="0" y1="0" x2="1" y2="1">
      <stop offset="0%" stop-color="#818cf8"/>
      <stop offset="100%" stop-color="#4f46e5"/>
    </linearGradient>
  </defs>
  <rect width="512" height="512" rx="80" fill="url(#bg)"/>
  <g transform="translate(256,240)">
    <ellipse cx="0" cy="-20" rx="80" ry="60" fill="url(#accent)" opacity="0.15"/>
    <circle cx="0" cy="-40" r="12" fill="url(#accent)"/>
    <path d="M-60,20 Q-40,-60 0,-80 Q40,-60 60,20" stroke="url(#accent)" stroke-width="3" fill="none" opacity="0.6"/>
    <path d="M-80,40 Q-60,-40 0,-60 Q60,-40 80,40" stroke="url(#accent)" stroke-width="2" fill="none" opacity="0.4"/>
    <g transform="translate(0,20)">
      <rect x="-40" y="-4" width="28" height="8" rx="2" fill="url(#accent)"/>
      <rect x="12" y="-4" width="28" height="8" rx="2" fill="url(#accent)"/>
    </g>
    <g transform="translate(-45,50)">
      <line x1="0" y1="10" x2="-15" y2="0" stroke="url(#accent)" stroke-width="1.5" opacity="0.5"/>
      <line x1="0" y1="10" x2="-10" y2="5" stroke="url(#accent)" stroke-width="1.5" opacity="0.3"/>
    </g>
    <g transform="translate(45,50)">
      <line x1="0" y1="10" x2="15" y2="0" stroke="url(#accent)" stroke-width="1.5" opacity="0.5"/>
      <line x1="0" y1="10" x2="10" y2="5" stroke="url(#accent)" stroke-width="1.5" opacity="0.3"/>
    </g>
  </g>
  <text x="256" y="420" text-anchor="middle" font-family="system-ui,sans-serif" font-weight="800" font-size="32" fill="url(#accent)" letter-spacing="4">HERMES</text>
  <text x="256" y="448" text-anchor="middle" font-family="system-ui,sans-serif" font-weight="500" font-size="14" fill="#6b6b80" letter-spacing="2">EDGE</text>
</svg>
